<svg xmlns="http://www.w3.org/2000/svg" xmlns:svg="http://www.w3.org/2000/svg" id="svg2" width="14" height="14" version="1.1" viewBox="0 0 14 14"><metadata id="metadata12"/><g id="layer3" transform="translate(0,-1)"><path font-size="medium" style="text-indent:0;text-align:start;line-height:normal;text-transform:none;block-progression:tb;marker:none;-inkscape-font-specification:Sans" id="rect3839" fill="#369" fill-opacity="1" fill-rule="nonzero" stroke="none" stroke-width="1" d="M 4.4425004,2.9274485 C 4.2728534,2.7778245 3.9865246,2.7870609 3.8268731,2.9473075 L 1.9204145,4.8537663 c -0.1663486,0.1663819 -0.1663486,0.4691041 0,0.635486 l 7.6258346,7.6258347 c 0.1663818,0.166348 0.4691039,0.166348 0.6354859,0 l 1.906459,-1.90646 c 0.166349,-0.166381 0.166349,-0.469102 0,-0.635485 L 4.4623594,2.9473075 C 4.45595,2.9404854 4.449324,2.9338593 4.4425008,2.9274489 z" baseline-shift="baseline" color="#000" direction="ltr" display="inline" enable-background="accumulate" font-family="Sans" font-stretch="normal" font-style="normal" font-variant="normal" font-weight="normal" letter-spacing="normal" overflow="visible" text-anchor="start" text-decoration="none" visibility="visible" word-spacing="normal" writing-mode="lr-tb"/><path font-size="medium" style="text-indent:0;text-align:start;line-height:normal;text-transform:none;block-progression:tb;marker:none;-inkscape-font-specification:Sans" id="rect3843" fill="#369" fill-opacity="1" fill-rule="nonzero" stroke="none" stroke-width="1" d="m 1.8608378,10.632718 c -0.1178622,0.173447 -0.091295,0.430264 0.059577,0.575909 l 1.9064585,1.90646 c 0.1663821,0.166349 0.4691043,0.166349 0.6354864,0 L 12.088194,5.4892523 c 0.16635,-0.1663819 0.16635,-0.4691041 0,-0.635486 L 10.181735,2.9473075 c -0.166382,-0.1663485 -0.4691041,-0.1663485 -0.6354859,0 L 1.9204145,10.573142 c -0.021665,0.01794 -0.04164,0.03791 -0.059577,0.05957 z" baseline-shift="baseline" color="#000" direction="ltr" display="inline" enable-background="accumulate" font-family="Sans" font-stretch="normal" font-style="normal" font-variant="normal" font-weight="normal" letter-spacing="normal" overflow="visible" text-anchor="start" text-decoration="none" visibility="visible" word-spacing="normal" writing-mode="lr-tb"/></g></svg>