<svg xmlns="http://www.w3.org/2000/svg" xmlns:svg="http://www.w3.org/2000/svg" id="svg2" width="14" height="14" version="1.1" viewBox="0 0 14 14"><metadata id="metadata12"/><g id="layer3" transform="translate(0,-1)"><path font-size="medium" style="text-indent:0;text-align:start;line-height:normal;text-transform:none;block-progression:tb;marker:none;-inkscape-font-specification:Sans" id="path6390" fill="#369" fill-opacity="1" fill-rule="nonzero" stroke="none" stroke-width="1" d="M 4.8971236,2 0.9375,2.6875 C 0.6736102,2.73222 0.4773346,3.0190843 0.53125,3.28125 L 1,6.625 C 1.056165,6.8429183 1.2750723,7.0070989 1.5,7 L 3,7 3,13.5 c 2.62e-5,0.261792 0.2382078,0.499974 0.5,0.5 l 7,0 c 0.261792,-2.6e-5 0.499974,-0.238208 0.5,-0.5 L 11,7 12.5,7 C 12.724928,7.0071 12.943835,6.8429183 13,6.625 l 0.53125,-3.3125 c 0.07422,-0.2619015 -0.108984,-0.567239 -0.375,-0.625 L 9.0846236,2 c -0.2214181,-0.048677 -0.4685911,0.074909 -0.5625,0.28125 0,0 -0.054532,0.1284565 -0.28125,0.3125 C 8.0141558,2.7777935 7.6445661,3 6.9596236,3 6.2746811,3 5.915171,2.8018839 5.7096236,2.625 5.5040762,2.4481161 5.4908736,2.3125 5.4908736,2.3125 5.4066006,2.0822747 5.1346094,1.9391215 4.8971236,2 z" baseline-shift="baseline" color="#000" direction="ltr" display="inline" enable-background="accumulate" font-family="Sans" font-stretch="normal" font-style="normal" font-variant="normal" font-weight="normal" letter-spacing="normal" overflow="visible" text-anchor="start" text-decoration="none" visibility="visible" word-spacing="normal" writing-mode="lr-tb"/></g></svg>