<svg xmlns="http://www.w3.org/2000/svg" xmlns:svg="http://www.w3.org/2000/svg" id="svg2" width="14" height="14" version="1.1" viewBox="0 0 14 14"><metadata id="metadata12"/><g id="layer3" transform="translate(0,-1)"><path id="path3082" fill="#036" fill-opacity="1" fill-rule="nonzero" stroke="none" stroke-dasharray="none" stroke-dashoffset="0" stroke-linecap="round" stroke-linejoin="round" stroke-miterlimit="4" stroke-opacity="1" stroke-width="1" d="M 6,1 6,3 8,3 8,1 z" transform="translate(0,1)"/><path id="path3084" fill="#036" fill-opacity="1" fill-rule="nonzero" stroke="none" d="m 13,6 0,2 -2,0 0,-2 z" transform="translate(0,1)"/><path id="path3086" fill="#036" fill-opacity="1" fill-rule="nonzero" stroke="none" d="m 8,11 0,2 -2,0 0,-2 z" transform="translate(0,1)"/><path id="path3088" fill="#036" fill-opacity="1" fill-rule="nonzero" stroke="none" d="M 3,6 3,8 1,8 1,6 z" transform="translate(0,1)"/><path id="path3090" fill="#036" fill-opacity="1" fill-rule="nonzero" stroke="none" d="M 7,2.53125 C 4.5366823,2.53125 2.53125,4.5366823 2.53125,7 2.53125,9.4633177 4.5366823,11.46875 7,11.46875 9.4633177,11.46875 11.46875,9.4633177 11.46875,7 11.46875,4.5366823 9.4633177,2.53125 7,2.53125 z M 7,4.0136613 C 8.6412986,4.0136613 9.9863387,5.3587014 9.9863387,7 9.9863387,8.6412986 8.6412986,9.9863387 7,9.9863387 5.3587014,9.9863387 4.0136613,8.6412986 4.0136613,7 4.0136613,5.3587014 5.3587014,4.0136613 7,4.0136613 z" transform="translate(0,1)"/><path id="path3095" fill="#036" fill-opacity="1" fill-rule="nonzero" stroke="none" d="M 8,7 A 1,1 0 1 1 6,7 1,1 0 1 1 8,7 z" transform="translate(0,1)"/></g></svg>